<mxfile host="app.diagrams.net" modified="2023-08-29T16:29:29.259Z" agent="Mozilla/5.0 (Windows NT 10.0; Win64; x64) AppleWebKit/537.36 (KHTML, like Gecko) Chrome/116.0.0.0 Safari/537.36" version="21.6.9" etag="DsOUAb7nHmboH8IdW2P7" type="github">
  <diagram name="PÃ¡gina-1" id="iXf_D6uzkqV6S4iV9w4Z">
    <mxGraphModel>
      <root>
        <mxCell id="0" />
        <mxCell id="1" parent="0" />
      </root>
    </mxGraphModel>
  </diagram>
</mxfile>
